#N canvas 893 84 741 417 10;
#X declare -lib Gem -path ../lib;
#X text 465 58 GEM object;
#X obj 31 283 cnv 15 430 80 empty empty empty 20 12 0 14 -233017 -66577
0;
#X text 62 286 Inlets:;
#X text 61 333 Outlets:;
#X obj 31 244 cnv 15 430 30 empty empty empty 20 12 0 14 -195568 -66577
0;
#X text 40 243 Arguments:;
#X obj 30 39 cnv 15 430 200 empty empty empty 20 12 0 14 -233017 -66577
0;
#X obj 472 115 cnv 15 170 250 empty empty empty 20 12 0 14 -228992
-66577 0;
#X text 476 98 Example:;
#X obj 542 51 cnv 15 100 60 empty empty empty 20 12 0 14 -195568 -66577
0;
#X obj 473 220 cnv 15 160 60 empty empty empty 20 12 0 14 -24198 -66577
0;
#X text 75 63 Class: pix object;
#X text 79 346 Outlet 1: gemlist;
#X text 86 300 Inlet 1: gemlist;
#X obj 477 157 pix_video;
#X obj 477 178 pix_grey;
#X obj 478 321 pix_texture;
#X obj 477 116 tgl 15 0 empty empty empty 17 7 0 10 -262144 -1 -1 0
1;
#X obj 602 13 loadbang;
#X obj 571 321 list length;
#X floatatom 571 342 10 0 0 0 - - -;
#X msg 554 51 create \, 1;
#X obj 550 92 gemwin;
#X msg 567 69 0 \, destroy;
#X obj 477 137 gemhead 2;
#X text 493 382 Fede Camara Halac 2021;
#X text 540 396 fdch.github.io;
#X obj 477 255 pix_border;
#X obj 31 14 declare -lib Gem -path ../lib;
#X text 86 313 Inlet 1: top \, bottom \, left \, and right edges \;
Inlet 1: thresh message;
#X text 86 254 Optional threshold init;
#X text 42 91 Description: Thresholds and rasterizes an image, f 64
;
#X text 54 44 Synopsis: [pix_border];
#X obj 477 349 rectangle 4 3;
#N canvas 674 227 789 533 (subpatch) 0;
#X floatatom 153 157 5 0 0 0 bottom - -;
#X floatatom 150 123 5 0 0 0 top - -;
#X floatatom 151 140 5 0 0 0 left - -;
#X msg 64 337 left \$1;
#X msg 175 337 right \$1;
#X msg 114 384 bottom \$1;
#X msg 120 304 top \$1;
#X floatatom 153 175 5 0 0 0 right - -;
#X obj 598 481 outlet;
#X floatatom 150 106 5 0 0 0 thresh - -;
#X msg 579 107 thresh \$1;
#X obj 352 240 -;
#X obj 352 261 abs;
#X obj 109 236 t f f;
#X obj 162 258 t f f;
#X obj 357 216 t b f;
#X floatatom 153 192 5 0 0 0 xoffset - -;
#X obj 324 323 +;
#X obj 439 242 -;
#X obj 439 263 abs;
#X obj 444 218 t b f;
#X floatatom 153 208 5 0 0 0 yoffset - -;
#X obj 415 316 +;
#X obj 147 232 t f f;
#X obj 132 272 t f f;
#X obj 263 286 t f f;
#X msg 35 233 set \$1;
#X msg 28 201 set \$1;
#X msg 25 161 set \$1;
#X obj 382 283 t f f;
#X msg 19 132 set \$1;
#X obj 256 35 unpack f f f f f f f;
#X obj 408 86 pack f f f f f f f f;
#X obj 603 52 bng 15 250 50 0 empty empty empty 17 7 0 10 -262144 -1
-1;
#X obj 402 42 bng 15 250 50 0 empty empty empty 17 7 0 10 -262144 -1
-1;
#X obj 408 149 list prepend set;
#X obj 408 170 list trim;
#X msg 408 191 81 211 516 499 849 453 148;
#X obj 448 52 loadbang;
#X obj 408 117 list split 1;
#X obj 102 119 bng 15 250 50 0 empty empty empty 17 7 0 10 -262144
-1 -1;
#X connect 0 0 24 0;
#X connect 0 0 32 4;
#X connect 1 0 23 0;
#X connect 1 0 32 2;
#X connect 2 0 13 0;
#X connect 2 0 32 3;
#X connect 3 0 8 0;
#X connect 4 0 8 0;
#X connect 5 0 8 0;
#X connect 6 0 8 0;
#X connect 7 0 14 0;
#X connect 7 0 32 5;
#X connect 9 0 10 0;
#X connect 9 0 32 1;
#X connect 10 0 8 0;
#X connect 11 0 12 0;
#X connect 12 0 17 1;
#X connect 13 0 3 0;
#X connect 13 1 11 0;
#X connect 14 0 4 0;
#X connect 14 1 15 0;
#X connect 15 0 11 0;
#X connect 15 1 11 1;
#X connect 16 0 25 0;
#X connect 16 0 32 6;
#X connect 17 0 27 0;
#X connect 17 0 4 0;
#X connect 18 0 19 0;
#X connect 19 0 22 1;
#X connect 20 0 18 0;
#X connect 20 1 18 1;
#X connect 21 0 29 0;
#X connect 21 0 32 7;
#X connect 22 0 5 0;
#X connect 22 0 28 0;
#X connect 23 0 6 0;
#X connect 23 1 18 0;
#X connect 24 0 5 0;
#X connect 24 1 20 0;
#X connect 25 0 17 0;
#X connect 25 1 3 0;
#X connect 25 1 26 0;
#X connect 26 0 2 0;
#X connect 27 0 7 0;
#X connect 28 0 0 0;
#X connect 29 0 22 0;
#X connect 29 1 30 0;
#X connect 29 1 6 0;
#X connect 30 0 1 0;
#X connect 31 0 9 0;
#X connect 31 1 1 0;
#X connect 31 2 2 0;
#X connect 31 3 0 0;
#X connect 31 4 7 0;
#X connect 31 5 16 0;
#X connect 31 6 21 0;
#X connect 32 0 39 0;
#X connect 34 0 32 0;
#X connect 35 0 36 0;
#X connect 36 0 37 0;
#X connect 37 0 31 0;
#X connect 38 0 37 0;
#X connect 39 1 35 0;
#X connect 40 0 34 0;
#X coords 0 -1 1 1 90 127 1 100 100;
#X restore 551 117 pd;
#X connect 14 0 15 0;
#X connect 15 0 27 0;
#X connect 16 0 33 0;
#X connect 17 0 24 0;
#X connect 18 0 21 0;
#X connect 19 0 20 0;
#X connect 21 0 22 0;
#X connect 23 0 22 0;
#X connect 24 0 14 0;
#X connect 27 0 16 0;
#X connect 27 1 19 0;
#X connect 34 0 27 0;
