#N canvas 569 38 700 685 12;
#X declare -lib Gem -path ../lib/;
#X obj 565 28 loadbang;
#X msg 564 63 create \, 1;
#X obj 569 108 gemwin;
#X msg 576 85 0 \, destroy;
#X text 538 732 Fede Camara Halac 2021;
#X text 593 751 fdch.github.io;
#X obj 30 14 declare -lib Gem -path ../lib/;
#X msg 327 291 display 4 \, convolve_type 1;
#X msg 248 479 output_type \$1;
#X obj 249 451 tgl 15 0 empty empty empty 17 7 0 10 #fcfcfc #000000
#000000 0 1;
#N canvas 0 22 450 300 tidying 0;
#X obj 106 138 color 0 0 0;
#X obj 104 184 rectangle 4 1;
#X obj 105 161 translateXYZ 0 -3 0;
#X obj 253 139 color 0 0 0;
#X obj 251 185 rectangle 4 1;
#X obj 252 162 translateXYZ 0 3 0;
#X obj 106 114 gemhead 3;
#X obj 253 115 gemhead 3;
#X connect 0 0 2 0;
#X connect 2 0 1 0;
#X connect 3 0 5 0;
#X connect 5 0 4 0;
#X connect 6 0 0 0;
#X connect 7 0 3 0;
#X restore 36 47 pd tidying up;
#N canvas 358 148 456 504 guts 1;
#X obj 247 116 tgl 15 0 empty empty empty 17 7 0 10 #fcfcfc #000000
#000000 0 1;
#X obj 247 137 gemhead 2;
#X obj 77 47 gemhead 1;
#X obj 246 329 pix_fft;
#X obj 245 390 scale 0.5;
#X obj 246 415 pix_texture;
#X obj 250 446 square 4;
#X obj 86 420 pix_texture;
#X obj 87 281 pix_fft;
#X obj 87 395 scale 0.5;
#X obj 86 448 square 4;
#X obj 86 367 translateXYZ -2 0 0;
#X obj 245 366 translateXYZ 2 0 0;
#X text 48 11 A circle filter;
#X text 250 77 Camera input;
#N canvas 435 73 655 647 circle 0;
#X obj 115 259 pix_texture;
#X obj 115 307 t a b;
#X obj 115 331 pix_snap 0 0 500 500;
#X obj 113 402 pix_resize 256 256;
#X floatatom 158 185 5 0 0 0 - - - 0;
#X obj 62 336 tgl 15 0 empty empty empty 17 7 0 10 #fcfcfc #000000
#000000 0 1;
#X obj 115 234 pix_grey;
#X obj 114 208 scale 1;
#X obj 110 167 color;
#X obj 115 283 circle 0.1;
#X obj 115 355 pix_grey;
#X obj 112 44 inlet;
#X obj 113 426 outlet;
#X obj 182 55 inlet;
#X obj 352 50 inlet;
#X obj 114 378 pix_invert;
#X obj 265 359 loadbang;
#X msg 265 383 0;
#X obj 187 355 r \$0-invert;
#X connect 0 0 9 0;
#X connect 1 0 2 0;
#X connect 1 1 2 0;
#X connect 2 0 10 0;
#X connect 3 0 12 0;
#X connect 4 0 7 1;
#X connect 6 0 0 0;
#X connect 7 0 6 0;
#X connect 8 0 7 0;
#X connect 9 0 1 0;
#X connect 10 0 15 0;
#X connect 11 0 8 0;
#X connect 13 0 8 1;
#X connect 14 0 9 1;
#X connect 15 0 3 0;
#X connect 16 0 17 0;
#X connect 17 0 15 0;
#X connect 18 0 15 0;
#X restore 81 216 pd circle;
#X obj 92 250 r \$0-filter-params;
#X obj 257 258 r \$0-image-params;
#X obj 243 171 pix_video;
#X obj 244 196 pix_grey;
#X obj 245 218 pix_crop 560 260 256 256;
#X obj 114 163 r \$0-brightness;
#X obj 150 185 r \$0-size;
#X msg 348 158 device 1;
#X connect 0 0 1 0;
#X connect 1 0 18 0;
#X connect 2 0 15 0;
#X connect 3 0 12 0;
#X connect 4 0 5 0;
#X connect 5 0 6 0;
#X connect 7 0 10 0;
#X connect 8 0 11 0;
#X connect 8 1 3 1;
#X connect 8 2 3 2;
#X connect 9 0 7 0;
#X connect 11 0 9 0;
#X connect 12 0 4 0;
#X connect 15 0 8 0;
#X connect 16 0 8 0;
#X connect 17 0 3 0;
#X connect 18 0 19 0;
#X connect 19 0 20 0;
#X connect 20 0 3 0;
#X connect 21 0 15 1;
#X connect 22 0 15 2;
#X connect 23 0 18 0;
#X restore 36 90 pd guts;
#X floatatom 189 370 5 0 0 0 - - - 0;
#X floatatom 67 368 5 0 0 0 - - - 0;
#X obj 66 392 s \$0-brightness;
#X obj 186 391 s \$0-size;
#X obj 182 521 s \$0-filter-params;
#X obj 44 556 f \$0;
#X obj 44 535 bng 15 250 50 0 empty empty empty 17 7 0 10 #fcfcfc #000000
#000000;
#X obj 386 572 f \$0;
#X obj 386 551 bng 15 250 50 0 empty empty empty 17 7 0 10 #fcfcfc
#000000 #000000;
#X msg 157 480 display \$1;
#X obj 157 459 hradio 15 1 0 5 empty empty empty 0 -8 0 10 #fcfcfc
#000000 #000000 0;
#X floatatom 74 440 5 0 0 0 - - - 0;
#X msg 74 460 power \$1;
#X msg 44 583 \; \$1-brightness 1 \; \$1-size 4 \; \$1-image-params
display 4 \, convolve_type 2 \, squelch 9 \;;
#X msg 386 596 \; \$1-brightness 0.002 \; \$1-size 0.32 \; \$1-image-params
display 3 \, filter 4 \;;
#X obj 259 369 tgl 15 0 empty empty empty 17 7 0 10 #fcfcfc #000000
#000000 0 1;
#X obj 259 389 s \$0-invert;
#X msg 554 487 output_type \$1;
#X obj 555 459 tgl 15 0 empty empty empty 17 7 0 10 #fcfcfc #000000
#000000 0 1;
#X msg 463 488 display \$1;
#X obj 463 467 hradio 15 1 0 5 empty empty empty 0 -8 0 10 #fcfcfc
#000000 #000000 0;
#X floatatom 380 448 5 0 0 0 - - - 0;
#X msg 380 468 squelch \$1;
#X obj 497 344 hradio 15 1 0 4 empty empty empty 0 -8 0 10 #fcfcfc
#000000 #000000 0;
#X text 495 326 reconstruction:;
#X msg 498 412 convolve_type \$1;
#X text 502 359 0:inputs(magphase) \; 1:inputs(im-re) \; 2:timbre-stamp
\; \;;
#X obj 488 529 s \$0-image-params;
#X floatatom 52 247 5 0 0 0 - - - 0;
#X msg 52 267 magscale \$1;
#X floatatom 192 248 5 0 0 0 - - - 0;
#X msg 192 268 magclip \$1;
#X obj 51 226 hsl 128 15 0.0001 1000 1 0 empty empty empty -2 -8 0
10 #fcfcfc #000000 #000000 0 1;
#X obj 193 228 hsl 128 15 0.0001 1000 1 0 empty empty empty -2 -8 0
10 #fcfcfc #000000 #000000 0 1;
#X msg 50 187 1;
#X msg 196 191 0;
#X text 52 206 magnitude scaling;
#X text 197 209 magnitude lower clip;
#X obj 90 303 s \$0-filter-params;
#X floatatom 370 223 5 0 0 0 - - - 0;
#X msg 370 244 phase \$1;
#X floatatom 371 167 5 -100 100 0 - - - 0;
#X obj 371 187 / 100;
#X msg 419 161 100;
#X msg 374 141 0;
#X msg 319 153 -100;
#X msg 411 135 50;
#X msg 346 135 -50;
#X text 377 204 phase shifting;
#X obj 384 523 loadbang;
#X connect 0 0 1 0;
#X connect 1 0 2 0;
#X connect 3 0 2 0;
#X connect 8 0 16 0;
#X connect 9 0 8 0;
#X connect 12 0 15 0;
#X connect 13 0 14 0;
#X connect 17 0 25 0;
#X connect 18 0 17 0;
#X connect 19 0 26 0;
#X connect 20 0 19 0;
#X connect 21 0 16 0;
#X connect 22 0 21 0;
#X connect 23 0 24 0;
#X connect 24 0 16 0;
#X connect 27 0 28 0;
#X connect 29 0 39 0;
#X connect 30 0 29 0;
#X connect 31 0 39 0;
#X connect 32 0 31 0;
#X connect 33 0 34 0;
#X connect 34 0 39 0;
#X connect 35 0 37 0;
#X connect 37 0 39 0;
#X connect 40 0 41 0;
#X connect 41 0 50 0;
#X connect 42 0 43 0;
#X connect 43 0 50 0;
#X connect 44 0 40 0;
#X connect 45 0 42 0;
#X connect 46 0 44 0;
#X connect 47 0 45 0;
#X connect 51 0 52 0;
#X connect 52 0 50 0;
#X connect 53 0 54 0;
#X connect 54 0 51 0;
#X connect 55 0 53 0;
#X connect 56 0 53 0;
#X connect 57 0 53 0;
#X connect 58 0 53 0;
#X connect 59 0 53 0;
#X connect 61 0 20 0;
